<?xml version="1.0" standalone="no"?>
<!DOCTYPE svg PUBLIC "-//W3C//DTD SVG 20010904//EN"
 "http://www.w3.org/TR/2001/REC-SVG-20010904/DTD/svg10.dtd">
<svg version="1.0" xmlns="http://www.w3.org/2000/svg"
 width="512.000000pt" height="512.000000pt" viewBox="0 0 512.000000 512.000000"
 preserveAspectRatio="xMidYMid meet">

<g transform="translate(0.000000,512.000000) scale(0.100000,-0.100000)"
fill="#000000" stroke="none">
<path d="M2450 4819 c-89 -40 -170 -151 -170 -234 0 -21 -6 -25 -47 -30 -337
-44 -598 -165 -825 -384 -192 -184 -311 -379 -383 -628 -48 -166 -55 -249 -55
-696 l0 -412 -480 -275 c-264 -151 -480 -277 -480 -280 0 -3 73 -33 163 -68
597 -230 1128 -352 1842 -424 173 -17 913 -17 1085 0 583 58 1011 145 1485
299 194 63 515 183 515 192 0 3 -213 129 -474 279 l-474 272 -1274 2 c-700 2
-1173 4 -1050 5 122 2 222 6 222 9 0 3 -68 215 -151 471 -127 390 -149 467
-138 478 8 8 127 95 264 195 138 99 311 225 387 280 75 55 142 100 148 100 12
0 755 -534 794 -570 18 -17 13 -32 -133 -483 -83 -256 -151 -468 -151 -471 0
-3 243 -6 541 -6 l541 0 -5 443 c-5 489 -9 526 -73 717 -136 407 -458 735
-864 878 -98 34 -207 60 -300 70 l-65 7 -16 62 c-9 35 -28 80 -42 102 -69 105
-225 151 -337 100z"/>
<path d="M2495 3543 c-19 -146 -51 -210 -165 -328 -101 -104 -121 -143 -122
-235 -1 -79 27 -145 80 -191 36 -32 115 -72 164 -83 l27 -6 -35 66 c-61 118
-44 226 51 313 27 25 50 41 51 35 2 -5 8 -27 13 -50 6 -22 38 -78 71 -124 53
-74 60 -88 60 -131 0 -26 -4 -59 -10 -73 -9 -24 -8 -25 18 -15 54 20 111 60
146 100 52 62 69 122 64 234 -4 86 -7 100 -48 181 -36 74 -60 105 -139 185
-80 79 -194 169 -215 169 -2 0 -8 -21 -11 -47z"/>
</g>
</svg>
